<svg width="24" height="24" viewBox="0 0 24 24" fill="none" xmlns="http://www.w3.org/2000/svg">
<path d="M19.8978 11.978C20.0341 12.1949 20.0341 12.4705 19.8978 12.6874C19.7698 12.8907 16.7139 17.6659 12 17.6659C11.2675 17.6613 10.54 17.5437 9.84338 17.3173L17.7099 9.45076C18.5431 10.1973 19.2783 11.0465 19.8978 11.978ZM19.1372 5.19485C19.3974 5.45518 19.3974 5.87717 19.1372 6.1375L6.47078 18.8039C6.30429 18.9812 6.05444 19.0538 5.81887 18.9932C5.58331 18.9327 5.39941 18.7486 5.33903 18.513C5.27866 18.2774 5.35139 18.0276 5.5288 17.8612L7.34143 16.0486C6.0718 15.1281 4.97513 13.9901 4.10217 12.6874C3.96594 12.4705 3.96594 12.1949 4.10217 11.978C4.23017 11.7747 7.2861 6.99948 12 6.99948C13.2192 7.01176 14.417 7.32089 15.4899 7.90013L18.1952 5.19485C18.4555 4.93505 18.8769 4.93505 19.1372 5.19485ZM9.33339 12.3327C9.33631 12.8061 9.46864 13.2697 9.71605 13.6733L13.3413 10.0487C12.9376 9.80094 12.4737 9.66859 12 9.66609C10.5273 9.66609 9.33339 10.86 9.33339 12.3327Z" fill="#6979F8"/>
</svg>
