<svg width="24" height="26" viewBox="0 0 24 26" fill="none" xmlns="http://www.w3.org/2000/svg">
<g filter="url(#filter0_d_0_154)">
<path d="M12 6.36353C8.36364 6.36353 5.25818 8.62534 4 11.8181C5.25818 15.0108 8.36364 17.2726 12 17.2726C15.6364 17.2726 18.7418 15.0108 20 11.8181C18.7418 8.62534 15.6364 6.36353 12 6.36353ZM12 15.4544C9.99273 15.4544 8.36364 13.8253 8.36364 11.8181C8.36364 9.8108 9.99273 8.18171 12 8.18171C14.0073 8.18171 15.6364 9.8108 15.6364 11.8181C15.6364 13.8253 14.0073 15.4544 12 15.4544ZM12 9.63625C10.7927 9.63625 9.81818 10.6108 9.81818 11.8181C9.81818 13.0253 10.7927 13.9999 12 13.9999C13.2073 13.9999 14.1818 13.0253 14.1818 11.8181C14.1818 10.6108 13.2073 9.63625 12 9.63625Z" fill="#6979F8"/>
</g>
<defs>
<filter id="filter0_d_0_154" x="-4" y="0" width="32" height="32" filterUnits="userSpaceOnUse" color-interpolation-filters="sRGB">
<feFlood flood-opacity="0" result="BackgroundImageFix"/>
<feColorMatrix in="SourceAlpha" type="matrix" values="0 0 0 0 0 0 0 0 0 0 0 0 0 0 0 0 0 0 127 0" result="hardAlpha"/>
<feOffset dy="4"/>
<feGaussianBlur stdDeviation="2"/>
<feComposite in2="hardAlpha" operator="out"/>
<feColorMatrix type="matrix" values="0 0 0 0 0 0 0 0 0 0 0 0 0 0 0 0 0 0 0.25 0"/>
<feBlend mode="normal" in2="BackgroundImageFix" result="effect1_dropShadow_0_154"/>
<feBlend mode="normal" in="SourceGraphic" in2="effect1_dropShadow_0_154" result="shape"/>
</filter>
</defs>
</svg>
